<svg version="1.1" id="Layer_1" xmlns="http://www.w3.org/2000/svg" xmlns:xlink="http://www.w3.org/1999/xlink" x="0px" y="0px"
 width="27.168px" height="37.825px" viewBox="74.812 0.029 27.168 37.825" enable-background="new 74.812 0.029 27.168 37.825"
 xml:space="preserve">
<g id="Group_11155" transform="translate(-76.026 -49.96)">
<g id="Group_10825" transform="translate(76.026 49.96)">
<path id="Path_4464" fill="#000000" d="M99.047,9.964H77.748c-1.651,0.03-2.965,1.393-2.935,3.044
c0.029,1.609,1.326,2.906,2.935,2.935h7.718v18.979c0,1.619,1.311,2.932,2.93,2.932c1.619,0.002,2.931-1.311,2.932-2.93
c0,0,0-0.001,0-0.002V15.944h7.718c1.651-0.03,2.965-1.393,2.936-3.044c-0.029-1.609-1.326-2.906-2.936-2.935"/>
<path id="Path_4465" fill="#FC4C02" d="M91.141,7.086h-8.952c-0.769-0.021-1.376-0.661-1.355-1.43
c0.02-0.74,0.615-1.335,1.355-1.355h8.952c0.77-0.021,1.409,0.586,1.43,1.355s-0.586,1.409-1.355,1.43
C91.189,7.087,91.165,7.087,91.141,7.086"/>
<path id="Path_4466" fill="#FC4C02" d="M84.388,0.915c0-0.489,0.397-0.886,0.886-0.886l0,0h2.9c0.49,0,0.886,0.397,0.886,0.887
c0,0.489-0.396,0.886-0.886,0.886h-2.9C84.785,1.802,84.388,1.406,84.388,0.915L84.388,0.915"/>
</g>
</g>
</svg>